<?xml version="1.0" encoding="UTF-8"?>
<svg xmlns="http://www.w3.org/2000/svg" xmlns:xlink="http://www.w3.org/1999/xlink" width="640pt" height="480pt" viewBox="0 0 640 480" version="1.1">
    <g id="surface1">
        <rect x="0" y="0" width="640" height="480" style="fill:rgb(100%,0%,0%);fill-opacity:1;stroke:none;"/>
        <path style=" stroke:none;fill-rule:nonzero;fill:rgb(100%,100%,100%);fill-opacity:1;" d="M 160 0 L 480 0 L 480 480 L 160 480 Z M 160 0 "/>
        <path style=" stroke:none;fill-rule:nonzero;fill:rgb(100%,0%,0%);fill-opacity:1;" d="M 319.996094 45 L 298.164062 106.082031 C 295.683594 112.71875 291.246094 112.101562 286.808594 108.394531 L 271 96.117188 L 282.78125 189.9375 C 285.261719 207.078125 277.3125 207.078125 273.390625 199.664062 L 245.804688 153.34375 L 241.324219 176.867188 C 240.808594 179.957031 238.539062 183.199219 235.132812 182.429688 L 200.25 171.425781 L 209.414062 221.390625 C 211.375 232.507812 212.902344 237.109375 207.433594 240.042969 L 195 248.808594 L 255.046875 321.96875 C 257.421875 324.734375 258.621094 329.710938 257.777344 334.21875 L 252.523438 360.089844 C 273.195312 356.515625 291.722656 351.136719 312.40625 347.824219 C 314.230469 347.53125 317.289062 352.050781 317.277344 355.226562 L 314.539062 450 L 324.589844 450 L 323.007812 355.429688 C 322.996094 352.253906 325.769531 347.53125 327.59375 347.824219 C 348.277344 351.136719 366.804688 356.515625 387.476562 360.089844 L 382.222656 334.21875 C 381.378906 329.710938 382.578125 324.734375 384.953125 321.96875 L 445 248.808594 L 432.566406 240.042969 C 427.097656 237.109375 428.625 232.507812 430.585938 221.390625 L 439.75 171.425781 L 404.867188 182.429688 C 401.460938 183.199219 399.191406 179.957031 398.675781 176.867188 L 394.195312 153.34375 L 366.609375 199.664062 C 362.6875 207.078125 354.738281 207.078125 357.21875 189.9375 L 369 96.117188 L 353.191406 108.394531 C 348.753906 112.101562 344.316406 112.71875 341.835938 106.082031 "/>
    </g>
</svg>
